<svg width="221" height="23" viewBox="0 0 221 23" fill="none" xmlns="http://www.w3.org/2000/svg">
<path d="M12.4999 0.888786V0.888831V4.93408C12.4999 5.14527 12.3264 5.32291 12.1044 5.32291H9.04742C8.70671 5.32291 8.42405 5.59824 8.42405 5.94539V8.09046V8.59046H8.92405H12.1044C12.2278 8.59046 12.343 8.64687 12.4173 8.74142L12.4174 8.74146C12.4915 8.83571 12.5173 8.95783 12.4884 9.07278L11.4694 13.1179C11.4263 13.2892 11.2696 13.4133 11.0854 13.4133H8.92405H8.42405V13.9133V21.1149C8.42405 21.3261 8.25054 21.5037 8.02847 21.5037H3.95253C3.73048 21.5037 3.55694 21.3261 3.55694 21.1149V13.9133V13.4133H3.05694H0.895583C0.673534 13.4133 0.5 13.2357 0.5 13.0245V8.97925C0.5 8.76808 0.67355 8.59042 0.895583 8.59042H3.05694H3.55694V8.09042V5.94535C3.55694 2.9468 6.01683 0.5 9.04746 0.5H12.1044C12.3265 0.5 12.5 0.677645 12.4999 0.888786ZM11.4422 9.99026L11.5989 9.36812H10.9573H8.02847C7.80637 9.36812 7.63284 9.19044 7.63284 8.97929V5.94539C7.63284 5.17738 8.26428 4.54525 9.04742 4.54525H11.2088H11.7088V4.04525V1.7777V1.2777H11.2088H9.04742C6.45929 1.2777 4.34807 3.36764 4.34807 5.94539V8.97929C4.34807 9.19046 4.17452 9.36812 3.95248 9.36812H1.79112H1.29112V9.86812V12.1357V12.6357H1.79112H3.95248C4.17453 12.6357 4.34807 12.8133 4.34807 13.0245V20.2261V20.7261H4.84807H7.13284H7.63284V20.2261V13.0245C7.63284 12.8133 7.80634 12.6357 8.02842 12.6357H10.3861H10.7758L10.871 12.2578L11.4422 9.99026Z" fill="white" stroke="white"/>
<path d="M63.9443 0.5H74.0557C77.0571 0.5 79.5 2.94315 79.5 5.94534V16.0584C79.5 19.0605 77.0571 21.5037 74.0557 21.5037H63.9443C60.9429 21.5037 58.5 19.0605 58.5 16.0584V5.94534C58.5 2.94315 60.9429 0.5 63.9443 0.5ZM74.0557 20.726C76.6296 20.726 78.7226 18.6325 78.7226 16.0584V5.94534C78.7226 3.37118 76.6295 1.27766 74.0557 1.27766H63.9443C61.3704 1.27766 59.2774 3.37123 59.2774 5.94534V16.0584C59.2774 18.6325 61.3705 20.726 63.9443 20.726H74.0557Z" fill="white" stroke="white"/>
<path d="M66.1074 8.78048L66.1074 8.78047C66.6886 7.99679 67.5424 7.48499 68.5075 7.34185L68.5075 7.34185C68.6853 7.31547 68.8645 7.30227 69.0437 7.30227C69.2229 7.30227 69.4021 7.31546 69.58 7.34189L66.1074 8.78048ZM66.1074 8.78048C65.5262 9.56416 65.2844 10.5299 65.4275 11.495L66.1074 8.78048ZM73.429 10.3082L73.429 10.3082C73.6029 11.4807 73.3104 12.6481 72.6044 13.6001L72.6044 13.6002C71.8984 14.5522 70.8663 15.1708 69.694 15.3447L69.6939 15.3447C69.4729 15.3775 69.2522 15.3937 69.0333 15.3937C68.0905 15.3937 67.1761 15.0937 66.4028 14.52C65.4509 13.8139 64.8323 12.7816 64.6585 11.6091L64.1639 11.6824L64.6585 11.6091C64.4846 10.4366 64.7771 9.26913 65.4831 8.31709C66.1891 7.36506 67.2212 6.74642 68.3935 6.57254C68.825 6.50854 69.2625 6.50854 69.694 6.57254L69.694 6.57254C70.6426 6.71318 71.5003 7.14503 72.1785 7.82325C72.8566 8.50149 73.2884 9.35939 73.429 10.3082ZM66.8658 13.8954C67.6493 14.4766 68.6149 14.7188 69.58 14.5754L65.4275 11.495C65.5705 12.4601 66.0822 13.3141 66.8658 13.8954ZM69.5801 14.5754C71.5746 14.2796 72.9557 12.4169 72.66 10.4224C72.4223 8.81939 71.1829 7.57966 69.5801 7.34191L69.5801 14.5754Z" fill="white" stroke="white"/>
<path d="M74.2863 5.1644C74.2864 5.16438 74.2864 5.16436 74.2864 5.16435C74.3581 5.09267 74.4599 5.05054 74.5612 5.05054C74.6624 5.05054 74.7643 5.09268 74.8361 5.1644H74.2863ZM74.2863 5.1644C74.2145 5.23624 74.1725 5.33777 74.1725 5.43926C74.1725 5.54072 74.2145 5.64224 74.2863 5.71408M74.2863 5.1644L74.2863 5.71408M74.2863 5.71408C74.2863 5.71411 74.2864 5.71414 74.2864 5.71417M74.2863 5.71408L74.2864 5.71417M74.2864 5.71417C74.3581 5.78586 74.46 5.82798 74.5612 5.82798C74.6625 5.82798 74.7643 5.78585 74.836 5.71417M74.2864 5.71417H74.836M74.836 5.71417C74.836 5.71416 74.8361 5.71414 74.8361 5.71412L74.836 5.71417Z" fill="white" stroke="white"/>
<path d="M137.951 4.14385C136.603 3.11151 134.94 2.50183 133.14 2.50183C128.645 2.50183 125 6.30741 125 11.0018C125 15.6963 128.645 19.5018 133.14 19.5018C137.636 19.5018 141.281 15.2713 141.281 10.5768C136.396 10.5768 135.04 10.5768 134.768 10.5768" stroke="white" stroke-width="1.9"/>
<path d="M149.421 3.03296V7.81421M149.421 12.5955V7.81421M149.421 7.81421H154H144.842" stroke="white" stroke-width="1.6"/>
<path d="M220.333 2.57795L220.333 2.57791C220.198 2.48718 220.018 2.48871 219.885 2.58153L219.885 2.58157C219.189 3.06492 218.436 3.45332 217.639 3.73986L217.359 3.84052L217.137 3.64267C216.394 2.98007 215.452 2.5828 214.431 2.51284C213.227 2.4303 212.066 2.81402 211.158 3.59272L211.158 3.59274C210.168 4.4405 209.607 5.66391 209.611 6.95105L209.614 7.49904L209.068 7.45104C205.196 7.11062 202.768 4.69158 201.114 2.65469M220.333 2.57795L201.114 2.65469M220.333 2.57795C220.467 2.66765 220.526 2.82571 220.489 2.97353L220.489 2.97361C220.195 4.1658 219.604 5.26272 218.771 6.17016L218.62 6.33424L218.642 6.55598C218.654 6.69055 218.661 6.8254 218.662 6.95959C218.661 9.44173 218.109 11.6641 217.032 13.579C216.031 15.357 214.569 16.8381 212.803 17.8618C210.955 18.9331 208.796 19.5018 206.555 19.5018L206.502 19.5017L206.501 19.5017C204.189 19.4924 201.835 18.8719 199.697 17.702C199.539 17.6155 199.468 17.4382 199.514 17.2758L199.514 17.2758M220.333 2.57795L199.514 17.2758M201.114 2.65469C201.029 2.54962 200.89 2.49464 200.75 2.51514L200.75 2.51516C200.61 2.53558 200.496 2.62701 200.446 2.74935L200.446 2.74943C200.416 2.82376 199.497 5.12502 199.731 7.89755C199.925 10.1927 200.954 13.1864 204.631 15.193L205.515 15.6759L204.596 16.0882C203.133 16.7439 201.516 17.0633 199.905 17.0001M201.114 2.65469L199.905 17.0001M199.905 17.0001C199.719 16.9929 199.561 17.1118 199.514 17.2758M199.905 17.0001L199.514 17.2758M217.924 5.94505L217.924 5.94509C217.833 6.03367 217.794 6.15885 217.817 6.27885C217.817 6.27887 217.817 6.2789 217.817 6.27892L217.327 6.37409L217.924 5.94505ZM217.924 5.94505C218.174 5.70249 218.403 5.44214 218.609 5.16658L219.635 3.79993L218.034 4.39817C217.806 4.48353 217.574 4.56118 217.339 4.63086L217.339 4.63093C217.189 4.67535 217.029 4.62827 216.929 4.5156L216.929 4.51558C216.275 3.77496 215.367 3.32989 214.377 3.26201L217.924 5.94505ZM206.47 15.2165L206.47 15.2165C204.683 14.5124 203.268 13.5474 202.259 12.3144C201.248 11.0781 200.666 9.59661 200.511 7.8966L200.511 7.89659C200.397 6.63371 200.544 5.46501 200.725 4.5957L200.92 3.65713L201.578 4.35462C202.275 5.0935 203.135 5.88156 204.154 6.53808C205.91 7.66904 207.874 8.2425 210 8.2425C210.222 8.2425 210.389 8.06736 210.389 7.86701V6.96143V6.96142V6.9614V6.96139V6.96138V6.96137V6.96136V6.96135V6.96134V6.96133V6.96132V6.9613V6.96129V6.96128V6.96127V6.96126V6.96125V6.96124V6.96123V6.96122V6.9612V6.96119V6.96118V6.96117V6.96116V6.96115V6.96114V6.96113V6.96111V6.9611V6.96109V6.96108V6.96107V6.96106V6.96105V6.96104V6.96102V6.96101V6.961V6.96099V6.96098V6.96097V6.96096V6.96095V6.96094V6.96092V6.96091V6.9609V6.96089V6.96088V6.96087V6.96086V6.96085V6.96083V6.96082V6.96081V6.9608V6.96079V6.96078V6.96077V6.96076V6.96074V6.96073V6.96072V6.96071V6.9607V6.96069V6.96068V6.96067V6.96065V6.96064V6.96063V6.96062V6.96061V6.9606V6.96059V6.96058V6.96057V6.96055V6.96054V6.96053V6.96052V6.96051V6.9605V6.96049V6.96047V6.96046V6.96045V6.96044V6.96043V6.96042V6.96041V6.9604V6.96039V6.96037V6.96036V6.96035V6.96034V6.96033V6.96032V6.96031V6.9603V6.96028V6.96027V6.96026V6.96025V6.96024V6.96023V6.96022V6.96021V6.96019V6.96018V6.96017V6.96016V6.96015V6.96014V6.96013V6.96011V6.9601V6.96009V6.96008V6.96007V6.96006V6.96005V6.96004V6.96002V6.96001V6.96V6.95999V6.95998V6.95997V6.95996V6.95995V6.95993V6.95992V6.95991V6.9599V6.95989V6.95988V6.95987V6.95986V6.95984V6.95983V6.95982V6.95981V6.9598V6.95979V6.95978V6.95977V6.95975V6.95974V6.95973V6.95972V6.95971V6.9597V6.95969V6.95968V6.95966V6.95965V6.95964V6.95963V6.95962V6.95961V6.9596V6.95958V6.95957V6.95956V6.95955V6.95954V6.95953V6.95952V6.95951V6.95949V6.95948V6.95947V6.95946V6.95945V6.95944V6.95943V6.95942V6.9594V6.95939V6.95938V6.95937V6.95936V6.95935V6.95934V6.95932V6.95931V6.9593V6.95929V6.95928V6.95927V6.95926V6.95925V6.95923V6.95922V6.95921V6.9592V6.95919V6.95918V6.95917V6.95916V6.95914V6.95913V6.95912V6.95911V6.9591V6.95909V6.95908V6.95906V6.95905V6.95904V6.95903V6.95902V6.95901V6.959V6.95899V6.95897V6.95896V6.95895V6.95894V6.95893V6.95892V6.95891V6.95889V6.95888V6.95887V6.95886V6.95885V6.95884V6.95883V6.95882V6.9588V6.95879V6.95878V6.95877V6.95876V6.95875V6.95874V6.95872V6.95871V6.9587V6.95869V6.95868V6.95867V6.95866V6.95865V6.95863V6.95862V6.95861V6.9586V6.95859V6.95858V6.95857V6.95855V6.95854V6.95853V6.95852V6.95851V6.9585V6.95849V6.95848V6.95846V6.95845V6.95844V6.95843V6.95842V6.95841V6.9584V6.95838V6.95837V6.95836V6.95835V6.95834V6.95833V6.95832V6.9583V6.95829V6.95828V6.95827V6.95826V6.95825V6.95824V6.95823V6.95821V6.9582V6.95819V6.95818V6.95817V6.95816V6.95815V6.95813V6.95812V6.95811V6.9581V6.95809V6.95808V6.95807V6.95805V6.95804V6.95803V6.95802V6.95801V6.958V6.95799V6.95797V6.95796V6.95795V6.95794V6.95793V6.95792V6.95791V6.9579V6.95788V6.95787V6.95786V6.95785V6.95784V6.95783V6.95782V6.9578V6.95779V6.95778V6.95777V6.95776V6.95775V6.95774V6.95772V6.95771V6.9577V6.95769V6.95768V6.95767V6.95766V6.95764V6.95763V6.95762V6.95761V6.9576V6.95759V6.95758V6.95757V6.95755V6.95754V6.95753V6.95752V6.95751V6.9575V6.95749V6.95747V6.95746V6.95745V6.95744V6.95743V6.95742V6.95741V6.95739V6.95738V6.95737V6.95736V6.95735V6.95734V6.95733V6.95731V6.9573V6.95729V6.95728V6.95727V6.95726V6.95725V6.95724V6.95722V6.95721V6.9572V6.95719V6.95718V6.95717V6.95716V6.95714V6.95713V6.95712V6.95711V6.9571V6.95709V6.95708V6.95706V6.95705V6.95704V6.95703V6.95702V6.95701V6.957V6.95698V6.95697V6.95696V6.95695V6.95694V6.95693V6.95692V6.9569V6.95689V6.95688V6.95687V6.95686V6.95685V6.95684V6.95682V6.95681V6.9568V6.95679V6.95678V6.95677V6.95676V6.95675V6.95673V6.95672V6.95671V6.9567V6.95669V6.95668V6.95667V6.95665V6.95664V6.95663V6.95662V6.95661V6.9566V6.95659V6.95657V6.95656V6.95655V6.95654V6.95653V6.95652V6.95651V6.95649V6.95648V6.95647V6.95646V6.95645V6.95644V6.95643V6.95641V6.9564V6.95639V6.95638V6.95637V6.95636V6.95635V6.95633V6.95632V6.95631V6.9563V6.95629V6.95628V6.95627V6.95625V6.95624V6.95623V6.95622V6.95621V6.9562V6.95619V6.95617V6.95616V6.95615V6.95614V6.95613V6.95612V6.95611V6.9561V6.95608V6.95607V6.95606V6.95605V6.95604V6.95603V6.95602V6.956V6.95599V6.95598V6.95597V6.95596V6.95595V6.95594V6.95592V6.95591V6.9559V6.95589V6.95588V6.95587V6.95586V6.95584V6.95583V6.95582V6.95581V6.9558V6.95579V6.95578V6.95576V6.95575V6.95574V6.95573V6.95572V6.95571V6.9557V6.95568V6.95567V6.95566V6.95565V6.95564V6.95563L206.47 15.2165ZM206.47 15.2165C206.605 15.2698 206.695 15.39 206.71 15.5246L206.47 15.2165Z" fill="white" stroke="white"/>
</svg>
